<?xml version="1.0" encoding="utf-8"?>
<!-- Svg Vector Icons : http://www.onlinewebfonts.com/icon -->
<!DOCTYPE svg PUBLIC "-//W3C//DTD SVG 1.1//EN" "http://www.w3.org/Graphics/SVG/1.1/DTD/svg11.dtd">
<svg version="1.1" xmlns="http://www.w3.org/2000/svg" xmlns:xlink="http://www.w3.org/1999/xlink" x="0px" y="0px" viewBox="0 0 1000 1000" enable-background="new 0 0 1000 1000" xml:space="preserve">
<metadata> Svg Vector Icons : http://www.onlinewebfonts.com/icon </metadata>
<g><path d="M990,595.8"/><path d="M990,595.8"/><path d="M763.8,836.3c-86.3,0-156.5-69.6-156.5-155.2c0-41.5,16.3-80.4,45.8-109.7c29.5-29.2,68.8-45.3,110.7-45.3c86.2,0,156.4,69.6,156.4,155.1C920.2,766.8,850,836.3,763.8,836.3z M684.5,684.3c-3.6,0-7,1.4-9.6,3.9c-2.5,2.5-3.9,5.8-3.9,9.2c0,3.5,1.4,6.8,3.9,9.2l64.4,63.1c2.6,2.5,6,3.9,9.6,3.9s7-1.4,9.6-3.9l110.8-108.6c2.5-2.5,3.9-5.8,3.9-9.2s-1.4-6.7-3.9-9.2c-2.5-2.5-6-3.9-9.6-3.9c-3.6,0-7,1.4-9.6,3.9l-101.3,99.2l-54.7-53.7C691.5,685.7,688.1,684.3,684.5,684.3z M81.1,803.4c-39.2,0-71.1-31.9-71.1-71.1V234.7c0-39.2,31.9-71.1,71.1-71.1h751.3c39.2,0,71.1,31.9,71.1,71.1v339l-11.6-12.1c-9.8-10.3-20.7-19.2-32.3-26.7l-3.1-2V246.2c0-20-16.2-36.2-36.2-36.2H92.6c-20,0-36.2,16.2-36.2,36.2v474.7c0,20,16.2,36.2,36.2,36.2h512.7l1.9,3.6c5.8,11.3,12.9,21.9,21,31.6l9.2,11H81.1z M158.4,671.9c-17.8,0-32.2-14.1-32.2-31.5v-297c0-17.3,14.5-31.5,32.2-31.5h280.3c18,0,33.2,14.4,33.2,31.5v297c0,17-15.2,31.5-33.2,31.5H158.4z M424,625.1c-3.9-25.6-8-30-8.4-30.4c-1.3-1.2-2.5-2.5-3.9-4c-7.3-7.8-19.5-20.7-52.2-25.4c-12.1-1.7-20.7-6.7-25.6-14.9c-9-15-1.8-35.1,0.8-42.2c-0.3-2.2,0-5.6,0.8-10.7l0.5-3.2l2.9-1.6c19.7-10.6,19.9-40.5,19.9-40.8v-24.2c-0.3-4.2-3.6-41.5-33.4-41.5h-1.1l-32.3-10.8c-7.7,0.2-13.9,2.8-18.9,8c-14,14.2-14.2,42.2-14.1,44c0.2,3,0.2,8.6,0,20.9c-0.3,22.1,20.5,47.8,20.7,48.1l1.1,1.4l0.3,1.8c1,6.2,1.2,9.8,0.6,12.1c1.1,7.2,3.5,25.2-6.8,39c-6.1,8.1-15.3,13.1-27.6,14.9c-29.6,4.2-37.6,15.3-43.5,23.4c-1.7,2.3-3.2,4.4-5.1,6.3c-7.4,9.6-9,22.4-9.2,30.2L424,625.1L424,625.1z M524.8,572.5v-46.3h79.9v46.3H524.8z M524.8,473.8v-46.3h262.4v46.3H524.8z M524.8,375.2v-46.3h262.4v46.3H524.8z"/></g>
</svg>